<svg xmlns="http://www.w3.org/2000/svg" viewBox="-37 340.9 439.6814 83.545944">
  <path fill="#4790d0" d="M-17.57037 353.6128c1.7-1.2 3.1-2.8 4.1-4.6 1.3-1.6 3-2.9 4.7999996-3.9-5.7999996-1.8-11.9999996-.5-16.5999996 3.4 0 0-9.9 6.6-11.7 34.4 0 0-.6 4.6 3.6 5.3 0 0 4.2.8 4.7-2.7s.4-21 8.3-30c.7-.8 1.7-1.5 2.8-1.9zm13.4999996 4.4c1.8-5.5 5.5-10.3 10.3-13.5 0 0-7.3-2.3-15.2 3.7 0 0-9.3999996 5.7-11.5999996 28.2-.4 2.8-.5 5.6-.4 8.4.2 1.9 1.8 3.4 3.8 3.6 0 0 4.1.3 4.4-3.5.3-3.8.4-5.4.4-5.4s.7-15 6.7999996-22.6zm15.1000004-.1s3.1-8.8 10.1-13.5c0 0-9.8-2.3-16.9000004 5.4 0 0-7 6.2-9.1 21.7 0 0-.9 8.3-1 12.4-.1 2.2 1.5 4.1 3.7 4.4 2.20000003.1 4-1.5 4.2-3.6v-.2s.3-19 7.3-27.6zm5.7-4.1s-6.7 9.7-6.7 29.5c0 0-.4000004 4.7 3.3 5.1 0 0 4.4.3 4.4-4.7 0 0 .2-19.6 7.7-27.5 0 0 6.7 7.9 7.2 26.6 0 0 .2 12.8 2.6 19.9 1.5-6.2 2.4-12.5 2.6-18.9 0-1.3.5-2.6 1.6-3.4.8-.6 1.2-1.6.9-2.6 0 0-1.6-16.3-7.1-25.5 0 0 11.6-.7 13.9 22.3 0 2 .7 3.9 1.9 5.5 1 .8 1.5 2.1 1.5 3.3 0 0 .3 3.3-.6 13.8-.1 1.9.2 3.8.8 5.6 1.7-5 2.4-10.3 2.1-15.6 0 0-.4-6.3 2.8-8.4 0 0-.3-17.5-7.3-27-3.8-4.9-9.8-7.7-16-7.5-6.5.1-12.4 3.7-15.6 9.5zm75 26.3s-4.2-.8-4.7 2.7-.4 21-8.3 30c-.8.9-1.7 1.6-2.9 2-1.7 1.2-3.1 2.8-4.1 4.6-1.3 1.6-3 2.9-4.8 3.9 5.8 1.8 12 .5 16.6-3.4 0 0 9.9-6.6 11.7-34.4.1-.1.6-4.7-3.5-5.4zm-12.9 12c.4-2.8.5-5.6.4-8.4-.2-1.9-1.8-3.4-3.8-3.6 0 0-4.1-.3-4.4 3.5-.3 3.8-.4 5.4-.4 5.4s-.7 15-6.8 22.6l-1.5-1.1c-1.8 5.5-5.5 10.3-10.3 13.5 0 0 7.3 2.3 15.2-3.7.1 0 9.4-5.7 11.6-28.2zm-15.6 4.8s.9-8.3 1-12.4c.1-2.2-1.5-4.1-3.7-4.4-2.2-.1-4 1.5-4.2 3.6v.2s-.3 19-7.3 27.6l-1.8-1.1s-3.1 8.8-10.1 13.5c0 0 9.8 2.3 16.9-5.4.1.1 7.1-6.1 9.2-21.6zm-21.7 17.8s6.7-9.7 6.7-29.5c0 0 .4-4.7-3.3-5.1 0 0-4.4-.3-4.4 4.7 0 0-.2 19.6-7.7 27.5 0 0-6.7-7.9-7.2-26.6 0 0-.2-12.8-2.6-19.9-1.5 6.2-2.4 12.5-2.6 18.9 0 1.3-.5 2.6-1.6 3.4-.8.6-1.2 1.6-.9 2.6 0 0 1.6 16.3 7.1 25.5 0 0-11.6.7-13.9-22.3 0-2-.7-3.9-1.9000004-5.5-1-.8-1.5-2.1-1.5-3.3 0 0-.3-3.3.6-13.8.1-1.9-.2-3.8-.8-5.6-1.7 5-2.4 10.3-2.1 15.6 0 0 .4 6.3-2.8 8.4 0 0 .3 17.5 7.3 27 3.8000004 4.9 9.8000004 7.7 16.0000004 7.5 6.5-.2 12.5-3.8 15.6-9.5z"/>
  <path fill="#272622" d="M118.12963 351.9128c-1.8-.9-3.9-.3-4.9 1.5l-.3.6-4.2 12.8-4.2-12.8c-.6-1.9-2.7-3-4.6-2.3-1.9.6-3 2.7-2.3 4.6 0 .1.1.2.1.3l7.1 17.7c.3 1.3 1.3 2.3 2.5 2.7 2.5.9 4.3-.1 5.4-2.7l7.1-17.7c.9-1.7.1-3.8-1.7-4.7zm4.6-9.8c-.8.8-1.2 1.8-1.2 2.9 0 1.1.5 2.2 1.3 3 1.7 1.6 4.3 1.6 5.9-.1 1.6-1.7 1.6-4.3-.1-5.9-1.7-1.5-4.3-1.5-5.9.1zm6.6 13.1c0-1-.4-1.9-1-2.6-1.4-1.4-3.7-1.4-5.1 0-.7.7-1.1 1.6-1.1 2.6v18.8c0 2 1.7 3.6 3.7 3.6s3.6-1.6 3.6-3.6v-18.8zm21.1 14.5c-.3 0-.7.1-1 .3l-.3.1-.8.3c-4.7 1.5-8.3-.8-8.4-5.8 0-4.9 3.5-7.5 7.9-6.1l.7.2.5.1.7.2.4.1c.2 0 .5 0 .7.1 1.5 0 2.7-1 3-2.5.6-2.4-1.2-4.7-6.6-5.3-8.1-.9-14.4 4.5-14.5 12.9-.1 8.3 6 13.9 14.2 13.2.9-.1 1.8-.3 2.7-.6 3.4-1.1 4.6-2.8 4.3-4.6-.3-1.6-1.9-2.8-3.5-2.6zm18-17.9h-2.2v-4.2c0-2-1.6-3.6-3.6-3.6s-3.6 1.6-3.6 3.6v4.2h-1.2c-.9 0-1.7.3-2.4.9-1.3 1.2-1.3 3.1-.2 4.4l.1.1c.6.6 1.5 1 2.4 1h1.3v15.6c0 1 .4 1.9 1.1 2.6 1.4 1.4 3.6 1.4 5 0 .7-.7 1-1.6 1-2.6v-15.5h2.1c.9 0 1.7-.3 2.4-.9 1.3-1.3 1.2-3.3-.1-4.6-.5-.6-1.3-1-2.1-1zm17.2 6.6l1-.3.4-.2c1.6-.6 2.4-2.5 1.7-4-.1-.3-.3-.5-.5-.8-1.5-2.2-4.6-2.2-7.4.8-.2.2-.4.4-.6.7v-.4c.1-1.4-1.3-2.8-3.5-2.6-2 0-3.6 1.5-3.7 3.5v18.9c0 2 1.6 3.6 3.6 3.6s3.6-1.6 3.6-3.6v-10.8c0-1.2.8-2.4 3.1-3.7.8-.5 1.6-.9 2.3-1.1zm15.5-7c-4.4 0-8.4 2.4-10.7 6.1-1.3 2.1-1.9 4.5-1.8 7 0 7.5 5.6 13.2 12.5 13.2s12.5-5.6 12.5-13.2c0-7.5-5.6-13.1-12.5-13.1zm5.1 14.2c-.4 3.2-1.9 5.1-4 5.5-3.1.7-5.7-1.2-6.3-5.5 0-.3-.1-.7 0-1v-1.1c.6-4.2 3.3-6 6.3-5.4 2 .4 3.6 2.2 4 5.3.1.7.1 1.5 0 2.2zm33.6-5.1c0-4.9-2.7-8.2-7.7-9-1.2-.2-2.3-.2-3.5 0-1.9.2-3.7 1.2-4.9 2.6v-.3c-.2-1.5-1.5-2.6-3-2.4h-.3c-2 .1-3.5 1.7-3.6 3.7v18.7c0 2 1.7 3.6 3.7 3.6s3.6-1.6 3.6-3.6v-12.3c0-1.1.4-2.2 1.2-3 1.7-1.6 4.4-1.6 6.1.1.8.8 1.2 1.8 1.2 2.9v12.3c0 2 1.7 3.6 3.7 3.6s3.6-1.7 3.6-3.7v-13.2zm40.2 10.2c-.3-.7-.8-1.3-1.6-1.6-1.2-.5-1.9-.4-4.2.9-4 2.1-7.6 1.5-9.5-.7-.6-.7-1-1.6-1.2-2.5h14c2.4 0 3.4-1 3.1-3.9-.2-1.4-.5-2.8-1.1-4.1-2.2-5.2-7.8-8.2-13.4-7.2-5 .9-9 4.8-10 9.7-2.1 8.9 3.9 16.3 12.9 16.3 8.8 0 12-4.4 11-6.9zm-16.6-9.1c.4-2 1.9-3.7 3.9-4.3 2.8-.7 5.2.9 6 4.4 0 .1 0 .3.1.5h-10.1c0-.3 0-.4.1-.6zm35.1-10.1c-1.2-.2-2.3-.2-3.5 0-1.9.2-3.7 1.2-4.9 2.6v-.3c-.2-1.5-1.5-2.6-3-2.4h-.3c-2 .1-3.5 1.7-3.6 3.7v18.7c0 2 1.7 3.6 3.7 3.6s3.5-1.6 3.6-3.6v-12.3c0-1.1.4-2.2 1.2-3 1.7-1.6 4.4-1.6 6.1.1.8.8 1.2 1.8 1.2 2.9v12.3c0 2 1.7 3.6 3.7 3.5 2 0 3.5-1.6 3.6-3.6v-13.4c0-4.7-2.8-8-7.8-8.8zm35.7 11.3c-.2-1.4-.5-2.8-1.1-4.1-2.2-5.3-7.8-8.2-13.4-7.2-5 .9-9 4.8-10 9.7-2.1 8.9 3.9 16.3 12.9 16.3 8.9 0 12-4.4 11-6.9-.3-.7-.8-1.3-1.6-1.5-1.2-.5-1.9-.4-4.2.9-4 2.1-7.6 1.5-9.5-.7-.6-.7-1-1.6-1.2-2.5h14c2.5 0 3.4-1.1 3.1-4zm-17.2-.7c0-.2 0-.4.1-.6.4-2 1.9-3.7 3.9-4.3 2.8-.7 5.2.9 6 4.4 0 .1 0 .3.1.5zm35.6-8.3c-.1-.3-.3-.5-.4-.8-1.5-2.2-4.6-2.2-7.4.8-.2.2-.4.4-.6.7v-.4c.1-1.4-1.3-2.8-3.5-2.6-2 0-3.6 1.5-3.7 3.5v18.9c0 2 1.6 3.6 3.6 3.6s3.6-1.6 3.6-3.6v-10.8c0-1.2.8-2.4 3.1-3.7.7-.4 1.4-.7 2.2-1l1-.3.4-.2c1.5-.7 2.3-2.5 1.7-4.1zm21.1-2.2c-1.5-.3-3 .6-3.3 2.1v.5c-3.7-4.5-11.8-3.9-15.8 2.5-.9 1.5-1.5 3.1-1.8 4.8-1 4.6.3 9.4 3.4 12.9 4.6 4.5 11.2 3.8 13.9 0v1c-.1 4.7-3.7 7.2-9.9 5-.3-.1-.7-.2-1-.4l-1.5-.7c-1.3-.6-2.8-.3-3.7.7-1.7 1.8-1.1 4.2 2.4 5.8 1.7.8 3.6 1.2 5.5 1.5 9.8 1 15.4-4.1 15.4-13.4v-18.8c-.1-1.8-1.6-3.4-3.6-3.5zm-4.8 17.6c-1.6 2.1-4.7 2.6-6.8.9-.3-.2-.6-.5-.8-.8-1-1.3-1.5-3-1.5-4.6 0-.4 0-.9.1-1.3.6-4.3 4.1-6.3 7.3-4.8 1.9.9 3.1 2.9 3.1 6.1 0 1.6-.5 3.2-1.4 4.5zm31.6-17.3c-1.8-.8-4-.1-4.8 1.7-.1.2-.1.4-.2.5l-4.6 12.1-4.5-12c-.5-1.9-2.5-3.1-4.5-2.6-.2 0-.3.1-.5.2-1.8.7-2.7 2.8-2 4.6l7.7 18.7-3.4 7.8c-.8 1.8 0 3.8 1.7 4.7.1 0 .1 0 .2.1 2 .8 4-.1 5-2.5l11.8-28.6c.7-1.8-.1-3.9-1.9-4.7zm-251 39.7c.4-.1.8-.3 1.1-.7.3-.3.5-.7.5-1.2 0-.6-.2-1.3-.7-1.7-.6-.4-1.4-.6-2.1-.6-.5 0-1.3 0-2.4.1v9.1h2.6c.8 0 1.7-.2 2.3-.7.6-.5.9-1.2.9-1.9 0-.6-.1-1.2-.5-1.6-.6-.4-1.1-.7-1.7-.8zm-2.5-3h1.1c1.1 0 1.6.4 1.6 1.3 0 1-.6 1.4-1.8 1.4h-1c.1 0 .1-2.7.1-2.7zm2.7 6.7c-.5.3-1.1.5-1.7.4-.2 0-.6 0-1-.1v-3.5h1c.6-.1 1.2.1 1.7.4.4.3.6.8.5 1.3.1.7-.1 1.2-.5 1.5zm16.2-7.7h-1.3v9.2h5.4v-1.2h-4.1zm22 6.3c0 .5-.2 1-.5 1.4-.4.4-.9.6-1.5.5-.5 0-1-.2-1.4-.5-.4-.4-.6-.9-.5-1.4v-6.3h-1.3v6.4c-.1.8.3 1.6.8 2.2 1.4 1 3.3 1 4.8 0 .6-.6.9-1.3.9-2.2v-6.4h-1.3zm16.9 2.9h5.4v-1.2h-4.2v-3.3h3.1v-1h-3.1v-2.6h4.3v-1.1h-5.5zm35.7-9.2c-.2 0-.8 0-1.7.1v9.1h1.3v-3.5c.5 0 .8.1.9.1 2.4 0 3.5-1 3.5-3.1 0-1.8-1.4-2.7-4-2.7zm.4 4.6s-.3 0-.8-.1v-3.4c.2 0 .5-.1.7-.1 1.7 0 2.5.6 2.5 1.7-.1 1.3-.9 1.9-2.4 1.9zm19.9-4.7c-1.1 0-2.1.5-2.7 1.3-.7 1-1 2.1-1 3.3-.1 1.2.3 2.4 1 3.5.6.9 1.6 1.4 2.7 1.4 1.1.1 2.2-.4 2.9-1.3.7-1 1.1-2.3 1-3.5.1-1.2-.3-2.4-1-3.4-.7-.9-1.8-1.4-2.9-1.3zm2 7.3c-.4.6-1.2 1-2 1-.7 0-1.4-.4-1.8-1.1-.4-.8-.7-1.7-.6-2.6 0-.9.2-1.8.6-2.6.4-.6 1.1-1 1.8-.9 1.8 0 2.6 1.2 2.6 3.5.1 1-.1 1.9-.6 2.7zm21.8-.8l-2-6.4h-.5l-2 6.4-1.9-6.4h-1.3l2.9 9.3h.4l2.1-6.3 2.2 6.3h.4l2.8-9.3h-1.3zm15.8 2.8h5.4v-1.2h-4.2v-3.3h3.1v-1h-3.1v-2.6h4.3v-1.1h-5.5zm23.6-5.1c.4-.4.5-1 .5-1.5 0-1.7-1.1-2.6-3.3-2.6h-2.3v9.1h1.3v-4c.6 0 1.1.1 1.3.1l2.5 3.9h1.4l-2.7-4.2c.5-.1 1-.4 1.3-.8zm-3 .1c-.3 0-.6 0-.9-.1v-3c.4 0 .6-.1.7-.1.6 0 1.2.1 1.7.3.4.2.6.7.6 1.1.1.5-.1 1-.5 1.3-.4.4-1 .5-1.6.5z"/>
</svg>
